<?xml version="1.0" encoding="iso-8859-1"?>
<!-- Generator: Adobe Illustrator 18.0.0, SVG Export Plug-In . SVG Version: 6.00 Build 0)  -->
<!DOCTYPE svg PUBLIC "-//W3C//DTD SVG 1.1//EN" "http://www.w3.org/Graphics/SVG/1.1/DTD/svg11.dtd">
<svg version="1.1" id="Capa_1" xmlns="http://www.w3.org/2000/svg" xmlns:xlink="http://www.w3.org/1999/xlink" x="0px" y="0px"
	 viewBox="0 0 347.873 347.873" style="enable-background:new 0 0 347.873 347.873;" xml:space="preserve">
<g>
	<path d="M52.983,175.07c10.845,0,19.668-8.823,19.668-19.669c0-0.176-0.021-0.346-0.026-0.521l53.64-20.415
		c3.61,4.273,9,6.998,15.02,6.998c6.149,0,11.644-2.841,15.253-7.274l40.956,14.731c-0.002,0.087-0.014,0.172-0.014,0.26
		c0,10.845,8.824,19.669,19.67,19.669c10.845,0,19.668-8.823,19.668-19.669c0-1.385-0.148-2.736-0.422-4.042l46.512-27.838
		c3.322,2.564,7.471,4.107,11.982,4.107c10.846,0,19.67-8.823,19.67-19.669c0-10.845-8.824-19.668-19.67-19.668
		c-10.845,0-19.668,8.823-19.668,19.668c0,1.609,0.216,3.166,0.582,4.664l-46.141,27.616c-3.402-2.813-7.764-4.506-12.514-4.506
		c-6.115,0-11.586,2.806-15.197,7.197l-41.008-14.751c0-0.055,0.008-0.109,0.008-0.164c0-10.845-8.823-19.668-19.668-19.668
		c-10.846,0-19.669,8.823-19.669,19.668c0,0.176,0.022,0.346,0.026,0.521L68.003,142.73c-3.611-4.274-9-6.998-15.02-6.998
		c-10.846,0-19.67,8.824-19.67,19.669C33.313,166.247,42.138,175.07,52.983,175.07z"/>
	<path d="M337.873,33.937H10c-5.523,0-10,4.477-10,10v210.393c0,5.523,4.477,10,10,10h114.979
		c-4.407,21.476-14.601,32.572-14.674,32.651c-2.793,2.885-3.59,7.16-2.023,10.857c1.566,3.697,5.191,6.099,9.207,6.099h112.895
		c4.016,0,7.641-2.402,9.207-6.099c1.566-3.697,0.77-7.973-2.023-10.857c-0.117-0.122-10.279-11.174-14.676-32.651h114.981
		c5.523,0,10-4.477,10-10V43.937C347.873,38.414,343.396,33.937,337.873,33.937z M327.873,244.329h-16.311v-2.816
		c0-5.523-4.477-10-10-10s-10,4.477-10,10v2.816h-10.439v-2.816c0-5.523-4.477-10-10-10c-5.522,0-10,4.477-10,10v2.816h-49.782
		h-74.809H20V53.937h307.873V244.329z"/>
</g>
<g>
</g>
<g>
</g>
<g>
</g>
<g>
</g>
<g>
</g>
<g>
</g>
<g>
</g>
<g>
</g>
<g>
</g>
<g>
</g>
<g>
</g>
<g>
</g>
<g>
</g>
<g>
</g>
<g>
</g>
</svg>
