<?xml version="1.0" encoding="iso-8859-1"?>
<!-- Generator: Adobe Illustrator 16.0.0, SVG Export Plug-In . SVG Version: 6.00 Build 0)  -->
<!DOCTYPE svg PUBLIC "-//W3C//DTD SVG 1.1//EN" "http://www.w3.org/Graphics/SVG/1.1/DTD/svg11.dtd">
<svg version="1.1" id="Capa_1" xmlns="http://www.w3.org/2000/svg" xmlns:xlink="http://www.w3.org/1999/xlink" x="0px" y="0px"
	 width="54.126px" height="54.125px" viewBox="0 0 54.126 54.125" style="enable-background:new 0 0 54.126 54.125;"
	 xml:space="preserve">
<g>
	<g>
		<path d="M3,49.782h13.375c1.654,0,3-1.346,3-3V33.407c0-1.654-1.346-3-3-3h-5.687V16.032c0-0.551,0.449-1,1-1h5.688v5.688
			c0,1.654,1.346,3,3,3h13.375c1.654,0,3-1.346,3-3v-5.688h5.688c0.551,0,1,0.449,1,1v14.375h-5.688c-1.653,0-3,1.346-3,3v13.375
			c0,1.654,1.347,3,3,3h13.375c1.654,0,3-1.346,3-3V33.407c0-1.654-1.346-3-3-3h-5.688V16.032c0-1.654-1.346-3-3-3H36.75V7.344
			c0-1.654-1.346-3-3-3H20.375c-1.654,0-3,1.346-3,3v5.688h-5.687c-1.654,0-3,1.346-3,3v14.375H3c-1.654,0-3,1.346-3,3v13.375
			C0,48.436,1.346,49.782,3,49.782z M52.125,33.407v13.375c0,0.551-0.449,1-1,1H37.75c-0.551,0-1-0.449-1-1V33.407
			c0-0.551,0.449-1,1-1h13.375C51.678,32.407,52.125,32.856,52.125,33.407z M19.375,7.345c0-0.551,0.449-1,1-1H33.75
			c0.551,0,1,0.449,1,1V20.72c0,0.551-0.449,1-1,1H20.375c-0.551,0-1-0.449-1-1V7.345z M2,33.407c0-0.551,0.449-1,1-1h13.375
			c0.551,0,1,0.449,1,1v13.375c0,0.551-0.449,1-1,1H3c-0.551,0-1-0.449-1-1V33.407z"/>
	</g>
</g>
<g>
</g>
<g>
</g>
<g>
</g>
<g>
</g>
<g>
</g>
<g>
</g>
<g>
</g>
<g>
</g>
<g>
</g>
<g>
</g>
<g>
</g>
<g>
</g>
<g>
</g>
<g>
</g>
<g>
</g>
</svg>
