<?xml version="1.0" encoding="iso-8859-1"?>
<!-- Generator: Adobe Illustrator 18.0.0, SVG Export Plug-In . SVG Version: 6.00 Build 0)  -->
<!DOCTYPE svg PUBLIC "-//W3C//DTD SVG 1.1//EN" "http://www.w3.org/Graphics/SVG/1.1/DTD/svg11.dtd">
<svg version="1.1" id="Capa_1" xmlns="http://www.w3.org/2000/svg" xmlns:xlink="http://www.w3.org/1999/xlink" x="0px" y="0px"
	 viewBox="0 0 203.896 203.896" style="enable-background:new 0 0 203.896 203.896;" xml:space="preserve">
<path d="M156.146,46.234c0-0.041,0-0.083-0.001-0.124l-0.184-10.675c-0.001-0.043-0.002-0.086-0.004-0.129
	c-0.506-14.735-1.874-24.394-2.439-27.867l-0.188-1.148C152.739,2.664,149.605,0,145.93,0H57.969c-3.671,0-6.803,2.657-7.4,6.279
	L50.377,7.44c-0.566,3.47-1.939,13.134-2.439,27.894c-0.001,0.042-0.002,0.083-0.003,0.125l-0.184,10.672
	c-0.001,0.042-0.001,0.083-0.001,0.125c-0.014,22.593,2.303,57.437,13.418,95.126c8.969,30.387,6.463,45.967,4.171,52.549
	c-0.799,2.294-0.438,4.832,0.97,6.811c1.407,1.98,3.684,3.155,6.113,3.155h59.055c2.429,0,4.707-1.176,6.113-3.156
	c1.407-1.98,1.769-4.518,0.969-6.812c-1.131-3.248-2.312-8.693-2.141-17.028c0.004-0.105,0.016-0.209,0.016-0.316
	c0-0.045-0.006-0.088-0.007-0.133c0.222-8.502,1.842-19.952,6.302-35.073C153.848,103.679,156.162,68.83,156.146,46.234z
	 M81.823,188.896c0.206-1.5,0.367-3.108,0.481-4.811h39.289c0.114,1.704,0.275,3.312,0.481,4.811H81.823z M128.342,137.136
	c-3.72,12.61-5.669,23.153-6.474,31.949H82.031c-0.805-8.797-2.755-19.34-6.477-31.949C64.957,101.202,62.74,67.93,62.75,46.325
	l0.182-10.545c0.313-9.181,0.971-16.181,1.53-20.78h74.971c0.559,4.602,1.216,11.596,1.532,20.76l0.182,10.545
	C141.157,67.912,138.943,101.19,128.342,137.136z"/>
<g>
</g>
<g>
</g>
<g>
</g>
<g>
</g>
<g>
</g>
<g>
</g>
<g>
</g>
<g>
</g>
<g>
</g>
<g>
</g>
<g>
</g>
<g>
</g>
<g>
</g>
<g>
</g>
<g>
</g>
</svg>
