<?xml version="1.0" encoding="iso-8859-1"?>
<!-- Generator: Adobe Illustrator 18.0.0, SVG Export Plug-In . SVG Version: 6.00 Build 0)  -->
<!DOCTYPE svg PUBLIC "-//W3C//DTD SVG 1.1//EN" "http://www.w3.org/Graphics/SVG/1.1/DTD/svg11.dtd">
<svg version="1.1" id="Capa_1" xmlns="http://www.w3.org/2000/svg" xmlns:xlink="http://www.w3.org/1999/xlink" x="0px" y="0px"
	 viewBox="0 0 203.896 203.896" style="enable-background:new 0 0 203.896 203.896;" xml:space="preserve">
<path d="M146.943,3.202C145.54,1.195,143.246,0,140.797,0H63.1c-2.448,0-4.743,1.195-6.146,3.201
	C44.212,21.42,35.978,45.564,35.978,64.713c0,17.498,6.98,33.313,19.654,44.532c10.482,9.279,24.257,14.933,39.342,16.268v63.384
	H76.919c-4.142,0-7.5,3.358-7.5,7.5c0,4.142,3.358,7.5,7.5,7.5h51.107c4.142,0,7.5-3.358,7.5-7.5c0-4.142-3.358-7.5-7.5-7.5h-18.053
	v-63.494c14.671-1.5,28.053-7.095,38.29-16.158c12.674-11.219,19.654-27.034,19.654-44.532
	C167.918,45.565,159.685,21.42,146.943,3.202z M101.949,110.825c-29.534,0-50.971-19.393-50.971-46.112
	c0-14.958,6.394-34.476,16.128-49.713h69.685c9.734,15.237,16.127,34.756,16.127,49.713
	C152.918,91.432,131.482,110.825,101.949,110.825z"/>
<g>
</g>
<g>
</g>
<g>
</g>
<g>
</g>
<g>
</g>
<g>
</g>
<g>
</g>
<g>
</g>
<g>
</g>
<g>
</g>
<g>
</g>
<g>
</g>
<g>
</g>
<g>
</g>
<g>
</g>
</svg>
