<?xml version="1.0" encoding="iso-8859-1"?>
<!-- Generator: Adobe Illustrator 19.1.0, SVG Export Plug-In . SVG Version: 6.00 Build 0)  -->
<svg version="1.1" id="Capa_1" xmlns="http://www.w3.org/2000/svg" xmlns:xlink="http://www.w3.org/1999/xlink" x="0px" y="0px"
	 viewBox="0 0 533.406 533.406" style="enable-background:new 0 0 533.406 533.406;" xml:space="preserve">
<g>
	<g>
		<path style="fill:#231F20;" d="M254.41,533.406C114.378,533.406,0,419.028,0,278.996s114.378-254.41,254.41-254.41
			c8.552,0,16.034,7.483,16.034,16.034v222.342h222.341c8.552,0,16.034,7.483,16.034,16.034
			C508.82,419.028,394.442,533.406,254.41,533.406z M238.376,56.654C122.929,65.206,32.068,161.411,32.068,278.996
			c0,122.929,99.412,222.342,222.342,222.342c117.584,0,213.79-90.861,222.342-206.307H254.41c-8.552,0-16.034-7.483-16.034-16.034
			C238.376,278.996,238.376,56.654,238.376,56.654z"/>
		<path style="fill:#231F20;" d="M516.303,229.824H318.547c-8.552,0-16.034-7.483-16.034-16.034V16.034
			C302.513,7.483,309.995,0,318.547,0c56.654,0,111.171,22.448,151.791,63.068c39.551,39.551,63.068,95.136,63.068,151.791
			C532.337,223.411,524.854,229.824,516.303,229.824z M334.581,197.756h165.687c-4.276-41.689-22.448-82.309-52.379-112.24
			c-29.931-29.931-70.551-49.172-112.24-52.379v164.618H334.581z"/>
	</g>
</g>
<g>
</g>
<g>
</g>
<g>
</g>
<g>
</g>
<g>
</g>
<g>
</g>
<g>
</g>
<g>
</g>
<g>
</g>
<g>
</g>
<g>
</g>
<g>
</g>
<g>
</g>
<g>
</g>
<g>
</g>
</svg>
