<?xml version='1.0' encoding='utf-8'?>
<!DOCTYPE svg PUBLIC '-//W3C//DTD SVG 1.1//EN' 'http://www.w3.org/Graphics/SVG/1.1/DTD/svg11.dtd'>
<svg version="1.1" xmlns="http://www.w3.org/2000/svg" viewBox="0 0 512 512" xmlns:xlink="http://www.w3.org/1999/xlink" enable-background="new 0 0 512 512">
  <g>
    <g>
      <g>
        <path d="m480.6,501h-449.2c-11.3,0-20.4-9.1-20.4-20.4v-449.2c0-11.3 9.1-20.4 20.4-20.4 11.3,0 20.4,9.1 20.4,20.4v428.8h428.7c11.3,0 20.4,9.1 20.4,20.4 0.1,11.3-9,20.4-20.3,20.4z"/>
      </g>
      <g>
        <path d="m125.8,425.7c-11.3,0-20.4-9.1-20.4-20.4v-339.4c0-11.3 9.1-20.4 20.4-20.4 11.3,0 20.4,9.1 20.4,20.4v339.4c0.1,11.3-9.1,20.4-20.4,20.4z"/>
      </g>
      <g>
        <path d="m238.1,425.7c-11.3,0-20.4-9.1-20.4-20.4v-265.3c0-11.3 9.1-20.4 20.4-20.4 11.3,0 20.4,9.1 20.4,20.4v265.3c0.1,11.3-9.1,20.4-20.4,20.4z"/>
      </g>
      <g>
        <path d="m350.4,425.7c-11.3,0-20.4-9.1-20.4-20.4v-172.6c0-11.3 9.1-20.4 20.4-20.4 11.3,0 20.4,9.1 20.4,20.4v172.6c5.68434e-14,11.3-9.1,20.4-20.4,20.4z"/>
      </g>
      <g>
        <path d="m462.7,425.7c-11.3,0-20.4-9.1-20.4-20.4v-98.5c0-11.3 9.1-20.4 20.4-20.4 11.3,0 20.4,9.1 20.4,20.4v98.5c5.68434e-14,11.3-9.1,20.4-20.4,20.4z"/>
      </g>
    </g>
  </g>
</svg>
