<?xml version="1.0" encoding="iso-8859-1"?>
<!-- Generator: Adobe Illustrator 19.1.0, SVG Export Plug-In . SVG Version: 6.00 Build 0)  -->
<svg version="1.1" id="Capa_1" xmlns="http://www.w3.org/2000/svg" xmlns:xlink="http://www.w3.org/1999/xlink" x="0px" y="0px"
	 viewBox="0 0 356.694 356.694" style="enable-background:new 0 0 356.694 356.694;" xml:space="preserve">
<g>
	<g>
		<path d="M170.659,34.404l-7.409-0.09c-0.229-0.003-0.458-0.011-0.687-0.02c-0.441-0.015-0.882-0.029-1.327-0.029
			c-88.894,0-161.215,72.321-161.215,161.215c0,41.046,15.209,79.656,42.979,109.551l-0.126,0.126l5.397,5.303l5.303,5.21
			l0.122-0.122c29.621,26.587,67.522,41.146,107.54,41.146c88.895,0,161.215-72.321,161.215-161.215v-7.5H170.659V34.404z
			 M53.611,294.421c-24.942-27.057-38.589-61.907-38.589-98.941c0-78.753,62.592-143.165,140.637-146.11v143.003l-29.633,29.633
			L53.611,294.421z M161.237,341.695c-36.015,0-70.146-13.003-96.92-36.766L166.266,202.98h140.997
			C303.346,280.133,239.346,341.695,161.237,341.695z"/>
		<path d="M310.111,47.946C280.115,17.613,240.112,0.618,197.473,0.093L189.88,0v168.759h166.793v-7.5
			C356.673,118.551,340.137,78.31,310.111,47.946z M204.88,153.759V15.379c35.809,2.268,69.147,17.412,94.565,43.115
			c25.466,25.752,40.232,59.341,42.04,95.265H204.88z"/>
	</g>
	<g>
	</g>
	<g>
	</g>
	<g>
	</g>
	<g>
	</g>
	<g>
	</g>
	<g>
	</g>
	<g>
	</g>
	<g>
	</g>
	<g>
	</g>
	<g>
	</g>
	<g>
	</g>
	<g>
	</g>
	<g>
	</g>
	<g>
	</g>
	<g>
	</g>
</g>
<g>
</g>
<g>
</g>
<g>
</g>
<g>
</g>
<g>
</g>
<g>
</g>
<g>
</g>
<g>
</g>
<g>
</g>
<g>
</g>
<g>
</g>
<g>
</g>
<g>
</g>
<g>
</g>
<g>
</g>
</svg>
