<?xml version="1.0" encoding="iso-8859-1"?>
<!-- Generator: Adobe Illustrator 19.1.0, SVG Export Plug-In . SVG Version: 6.00 Build 0)  -->
<svg version="1.1" id="Capa_1" xmlns="http://www.w3.org/2000/svg" xmlns:xlink="http://www.w3.org/1999/xlink" x="0px" y="0px"
	 viewBox="0 0 194.666 194.666" style="enable-background:new 0 0 194.666 194.666;" xml:space="preserve">
<g>
	<g>
		<g>
			<path d="M171.078,194.666H47.721c-6.351,0-11.517-5.168-11.517-11.521v-50.542c0-0.442,0.358-0.8,0.8-0.8h78.579
				c6.386,0,11.582-5.193,11.582-11.576V82.412c0-6.383-5.196-11.576-11.582-11.576H37.003c-0.442,0-0.8-0.358-0.8-0.8V11.521
				c0-6.353,5.167-11.521,11.517-11.521h82.386c0.442,0,0.8,0.358,0.8,0.8v38.943c0,5.47,4.449,9.921,9.917,9.921h40.982
				c0.442,0,0.8,0.358,0.8,0.8v132.68C182.605,189.498,177.435,194.666,171.078,194.666z M37.803,133.403v49.742
				c0,5.471,4.449,9.921,9.917,9.921h123.357c5.474,0,9.928-4.451,9.928-9.921V51.265h-40.182c-6.351,0-11.517-5.168-11.517-11.521
				V1.6H47.721c-5.468,0-9.917,4.451-9.917,9.921v57.716h77.779c7.269,0,13.182,5.91,13.182,13.175v37.815
				c0,7.265-5.913,13.175-13.182,13.175H37.803z"/>
			<path d="M181.806,51.265h-40.982c-6.351,0-11.517-5.168-11.517-11.521V0.801c0-0.321,0.191-0.61,0.486-0.736
				c0.294-0.127,0.636-0.064,0.868,0.159l51.699,49.664c0.235,0.227,0.31,0.573,0.188,0.876
				C182.426,51.066,182.132,51.265,181.806,51.265z M130.906,2.679v37.065c0,5.47,4.449,9.921,9.917,9.921h38.994L130.906,2.679z"/>
			<path d="M37.003,133.403H25.232c-7.263,0-13.172-5.91-13.172-13.175V82.412c0-7.265,5.909-13.175,13.172-13.175h11.771
				c0.442,0,0.8,0.358,0.8,0.8s-0.358,0.8-0.8,0.8H25.232c-6.381,0-11.573,5.193-11.573,11.576v37.815
				c0,6.383,5.191,11.576,11.573,11.576h11.771c0.442,0,0.8,0.358,0.8,0.8S37.445,133.403,37.003,133.403z"/>
		</g>
		<g>
			<path d="M35.745,90.029h6.644c1.726,0,3.209,0.166,4.441,0.478c1.242,0.319,2.363,0.93,3.368,1.814
				c2.62,2.24,3.924,5.649,3.924,10.226c0,1.509-0.127,2.88-0.39,4.132c-0.26,1.248-0.67,2.37-1.219,3.371
				c-0.553,1.001-1.248,1.905-2.103,2.692c-0.679,0.605-1.417,1.095-2.223,1.456c-0.8,0.364-1.668,0.624-2.581,0.774
				c-0.917,0.149-1.96,0.218-3.114,0.218h-6.638c-0.933,0-1.632-0.133-2.093-0.413c-0.478-0.286-0.784-0.683-0.923-1.19
				c-0.143-0.504-0.214-1.167-0.214-1.98V93.153c0-1.099,0.244-1.892,0.738-2.38C33.853,90.276,34.643,90.029,35.745,90.029z
				 M37.722,94.063v17.079h3.862c0.845,0,1.508-0.02,1.986-0.068c0.491-0.042,0.982-0.159,1.492-0.342
				c0.517-0.188,0.962-0.449,1.339-0.774c1.713-1.443,2.555-3.92,2.555-7.451c0-2.484-0.37-4.343-1.118-5.578
				c-0.754-1.242-1.674-2.025-2.776-2.36c-1.092-0.338-2.419-0.507-3.976-0.507H37.722z"/>
			<path d="M69.673,89.606c2.607,0,4.85,0.524,6.716,1.583c1.872,1.06,3.299,2.562,4.252,4.515c0.965,1.954,1.453,4.242,1.453,6.872
				c0,1.947-0.27,3.716-0.793,5.308c-0.53,1.586-1.326,2.965-2.373,4.138c-1.047,1.167-2.35,2.051-3.875,2.672
				c-1.538,0.624-3.289,0.927-5.269,0.927c-1.973,0-3.732-0.319-5.289-0.949c-1.554-0.637-2.848-1.528-3.904-2.688
				c-1.04-1.16-1.817-2.545-2.357-4.171c-0.523-1.625-0.793-3.381-0.793-5.266c0-1.937,0.276-3.712,0.832-5.325
				c0.553-1.609,1.359-2.984,2.412-4.115c1.05-1.138,2.331-2.003,3.846-2.607C66.032,89.899,67.752,89.606,69.673,89.606z
				 M76.919,102.547c0-1.846-0.293-3.446-0.9-4.791c-0.582-1.346-1.43-2.373-2.542-3.062c-1.102-0.699-2.357-1.037-3.803-1.037
				c-1.008,0-1.957,0.189-2.821,0.569c-0.861,0.384-1.603,0.949-2.22,1.677c-0.634,0.728-1.125,1.664-1.486,2.805
				c-0.358,1.141-0.54,2.415-0.54,3.839c0,1.424,0.182,2.715,0.54,3.875c0.361,1.151,0.871,2.119,1.521,2.874
				c0.66,0.761,1.417,1.326,2.272,1.71c0.855,0.377,1.785,0.572,2.809,0.572c1.3,0,2.497-0.332,3.592-0.982
				c1.089-0.65,1.967-1.664,2.613-3.03C76.59,106.211,76.919,104.537,76.919,102.547z"/>
			<path d="M107.885,107.251c0,0.797-0.205,1.661-0.595,2.594c-0.4,0.936-1.018,1.85-1.863,2.747
				c-0.845,0.897-1.928,1.632-3.238,2.191c-1.317,0.559-2.861,0.839-4.61,0.839c-1.313,0-2.532-0.13-3.618-0.377
				c-1.086-0.25-2.071-0.644-2.965-1.177c-0.884-0.533-1.697-1.235-2.445-2.1c-0.657-0.793-1.229-1.677-1.7-2.653
				c-0.468-0.982-0.826-2.022-1.06-3.127c-0.228-1.115-0.341-2.295-0.341-3.543c0-2.022,0.299-3.836,0.877-5.441
				c0.595-1.596,1.44-2.971,2.536-4.112c1.102-1.134,2.392-1.999,3.868-2.597c1.469-0.595,3.039-0.887,4.707-0.887
				c2.048,0,3.855,0.406,5.448,1.213c1.593,0.819,2.805,1.82,3.654,3.01c0.855,1.196,1.271,2.327,1.271,3.394
				c0,0.589-0.205,1.099-0.617,1.544c-0.413,0.452-0.9,0.666-1.495,0.666c-0.647,0-1.141-0.149-1.466-0.455
				c-0.325-0.309-0.682-0.845-1.089-1.599c-0.66-1.248-1.437-2.178-2.344-2.802c-0.894-0.617-2.003-0.92-3.322-0.92
				c-2.093,0-3.761,0.79-4.996,2.383c-1.248,1.589-1.863,3.849-1.863,6.781c0,1.96,0.273,3.585,0.816,4.883
				c0.55,1.294,1.336,2.266,2.337,2.906c1.014,0.647,2.188,0.969,3.53,0.969c1.466,0,2.708-0.364,3.722-1.099
				c1.011-0.731,1.781-1.791,2.301-3.199c0.211-0.657,0.475-1.203,0.796-1.619c0.316-0.423,0.842-0.624,1.548-0.624
				c0.601,0,1.125,0.201,1.554,0.63C107.673,106.091,107.885,106.624,107.885,107.251z"/>
		</g>
	</g>
</g>
<g>
</g>
<g>
</g>
<g>
</g>
<g>
</g>
<g>
</g>
<g>
</g>
<g>
</g>
<g>
</g>
<g>
</g>
<g>
</g>
<g>
</g>
<g>
</g>
<g>
</g>
<g>
</g>
<g>
</g>
</svg>
