<?xml version="1.0" encoding="iso-8859-1"?>
<!-- Generator: Adobe Illustrator 18.1.1, SVG Export Plug-In . SVG Version: 6.00 Build 0)  -->
<svg version="1.1" id="Capa_1" xmlns="http://www.w3.org/2000/svg" xmlns:xlink="http://www.w3.org/1999/xlink" x="0px" y="0px"
	 viewBox="0 0 262.843 262.843" style="enable-background:new 0 0 262.843 262.843;" xml:space="preserve">
<g>
	<g>
		<path style="fill:#010002;" d="M13.598,240.657C6.086,240.657,0,234.571,0,227.059V27.625c0-7.511,6.086-13.598,13.598-13.598
			s13.598,6.086,13.598,13.598v199.434C27.195,234.571,21.109,240.657,13.598,240.657z"/>
	</g>
	<g>
		<path style="fill:#010002;" d="M60.727,223.431c-7.511,0-13.598-6.086-13.598-13.598V55.729c0-7.511,6.086-13.598,13.598-13.598
			s13.598,6.086,13.598,13.598v154.105C74.325,217.345,68.238,223.431,60.727,223.431z"/>
	</g>
	<g>
		<path style="fill:#010002;" d="M154.986,231.59c-7.511,0-13.598-6.086-13.598-13.598V55.729c0-7.511,6.086-13.598,13.598-13.598
			s13.598,6.086,13.598,13.598v162.264C168.584,225.504,162.497,231.59,154.986,231.59z"/>
	</g>
	<g>
		<path style="fill:#010002;" d="M202.116,248.815c-7.511,0-13.598-6.086-13.598-13.598V37.6c0-7.511,6.086-13.598,13.598-13.598
			c7.511,0,13.598,6.086,13.598,13.598v197.618C215.713,242.729,209.627,248.815,202.116,248.815z"/>
	</g>
	<g>
		<path style="fill:#010002;" d="M249.245,240.657c-7.511,0-13.598-6.086-13.598-13.598V27.625c0-7.511,6.086-13.598,13.598-13.598
			s13.598,6.086,13.598,13.598v199.434C262.843,234.571,256.756,240.657,249.245,240.657z"/>
	</g>
	<g>
		<path style="fill:#010002;" d="M107.857,204.395c-7.511,0-13.598-6.086-13.598-13.598V77.485c0-7.511,6.086-13.598,13.598-13.598
			s13.598,6.086,13.598,13.598v113.312C121.454,198.308,115.368,204.395,107.857,204.395z"/>
	</g>
</g>
<g>
</g>
<g>
</g>
<g>
</g>
<g>
</g>
<g>
</g>
<g>
</g>
<g>
</g>
<g>
</g>
<g>
</g>
<g>
</g>
<g>
</g>
<g>
</g>
<g>
</g>
<g>
</g>
<g>
</g>
</svg>
