<?xml version="1.0" encoding="iso-8859-1"?>
<!-- Generator: Adobe Illustrator 19.1.0, SVG Export Plug-In . SVG Version: 6.00 Build 0)  -->
<svg version="1.1" id="Capa_1" xmlns="http://www.w3.org/2000/svg" xmlns:xlink="http://www.w3.org/1999/xlink" x="0px" y="0px"
	 viewBox="0 0 317.452 317.452" style="enable-background:new 0 0 317.452 317.452;" xml:space="preserve">
<g>
	<g id="CD_2_">
		<g>
			<path d="M158.726,0C71.064,0,0,71.064,0,158.726s71.064,158.726,158.726,158.726s158.726-71.064,158.726-158.726
				S246.388,0,158.726,0z M158.726,294.777c-75.145,0-136.051-60.905-136.051-136.051S83.581,22.675,158.726,22.675
				s136.051,60.905,136.051,136.051S233.871,294.777,158.726,294.777z M158.726,79.363c-43.831,0-79.363,35.532-79.363,79.363
				s35.532,79.363,79.363,79.363s79.363-35.532,79.363-79.363S202.557,79.363,158.726,79.363z M158.726,215.414
				c-31.314,0-56.688-25.373-56.688-56.688s25.373-56.688,56.688-56.688s56.688,25.373,56.688,56.688
				S190.04,215.414,158.726,215.414z M158.726,136.051c-12.517,0-22.675,10.158-22.675,22.675s10.158,22.675,22.675,22.675
				s22.675-10.158,22.675-22.675S171.243,136.051,158.726,136.051z"/>
		</g>
	</g>
</g>
<g>
</g>
<g>
</g>
<g>
</g>
<g>
</g>
<g>
</g>
<g>
</g>
<g>
</g>
<g>
</g>
<g>
</g>
<g>
</g>
<g>
</g>
<g>
</g>
<g>
</g>
<g>
</g>
<g>
</g>
</svg>
