<?xml version='1.0' encoding='utf-8'?>
<!DOCTYPE svg PUBLIC '-//W3C//DTD SVG 1.1//EN' 'http://www.w3.org/Graphics/SVG/1.1/DTD/svg11.dtd'>
<svg version="1.1" xmlns="http://www.w3.org/2000/svg" viewBox="0 0 512 512" xmlns:xlink="http://www.w3.org/1999/xlink" enable-background="new 0 0 512 512">
  <g>
    <path d="m494.6,426.5l-141.3-244c-0.5-0.9-0.8-1.7-0.8-2.5l-.4-128.1h7.6c11.3,0 20.4-9.1 20.4-20.4 0-11.3-9.1-20.4-20.4-20.4h-207.4c-11.3,0-20.4,9.1-20.4,20.4 0,11.3 9.1,20.4 20.4,20.4h7.6l-.4,128.1c0,0.8-0.3,1.7-0.8,2.5l-141.3,244c-8.5,14.6-8.5,31.4-0.1,46 10.1,17.6 30.7,28.5 53.6,28.5h370.1c23,0 43.5-10.9 53.6-28.5 8.5-14.6 8.5-31.4 0-46zm-53.5,33.7h-370.2c-9.4,0-21.9-6.5-18.2-13.2l141.3-244c3.9-6.7 6.1-14.3 6.3-21.8l.4-129.2h110.5l.4,129.2c0.2,7.6 2.4,15.1 6.3,21.8l141.3,244c3.5,6.4-8.7,13.2-18.1,13.2z"/>
  </g>
</svg>
