<?xml version="1.0" encoding="iso-8859-1"?>
<!-- Generator: Adobe Illustrator 16.0.0, SVG Export Plug-In . SVG Version: 6.00 Build 0)  -->
<!DOCTYPE svg PUBLIC "-//W3C//DTD SVG 1.1//EN" "http://www.w3.org/Graphics/SVG/1.1/DTD/svg11.dtd">
<svg version="1.1" id="Capa_1" xmlns="http://www.w3.org/2000/svg" xmlns:xlink="http://www.w3.org/1999/xlink" x="0px" y="0px"
	 width="34px" height="34px" viewBox="0 0 34 34" style="enable-background:new 0 0 34 34;" xml:space="preserve">
<g>
	<g>
		<polygon points="17.547,3.587 19.119,3.587 19.119,2.413 17.547,2.413 17.547,1.666 14.879,3 17.547,4.334 		"/>
		<polygon points="16.452,30.413 14.879,30.413 14.879,31.587 16.452,31.587 16.452,32.334 19.119,31 16.452,29.666 		"/>
		<polygon points="5.657,9.818 6.442,8.458 5.426,7.871 4.642,9.232 3.994,8.857 3.814,11.836 6.305,10.191 		"/>
		<polygon points="28.342,24.182 27.557,25.542 28.572,26.129 29.355,24.768 30.006,25.143 30.186,22.164 27.693,23.809 		"/>
		<polygon points="5.108,23.232 4.323,21.871 3.308,22.458 4.092,23.818 3.445,24.191 5.936,25.836 5.756,22.857 		"/>
		<polygon points="28.891,10.768 29.676,12.13 30.689,11.542 29.906,10.182 30.555,9.807 28.062,8.164 28.242,11.141 		"/>
		<path d="M31,14c-1.57,0-2.848,1.213-2.977,2.75h-6.051c-0.082-1.654-0.957-3.096-2.265-3.943l3.021-5.229
			c1.396,0.656,3.082,0.158,3.867-1.202c0.829-1.435,0.338-3.271-1.099-4.099c-1.437-0.827-3.271-0.338-4.099,1.099
			c-0.787,1.36-0.373,3.072,0.896,3.952l-3.025,5.24c-0.688-0.352-1.449-0.567-2.271-0.567s-1.586,0.217-2.27,0.567l-3.027-5.241
			c1.267-0.882,1.68-2.591,0.895-3.951C11.77,1.939,9.935,1.45,8.5,2.277C7.064,3.105,6.573,4.941,7.401,6.376
			c0.785,1.36,2.472,1.856,3.869,1.202l3.02,5.229c-1.309,0.848-2.182,2.289-2.265,3.943h-6.05C5.846,15.212,4.57,13.999,3,13.999
			c-1.657,0-3,1.344-3,3c0,1.657,1.343,3,3,3c1.57,0,2.845-1.212,2.974-2.75h6.051c0.083,1.655,0.957,3.097,2.266,3.942l-3.02,5.229
			c-1.396-0.656-3.085-0.16-3.87,1.2c-0.829,1.437-0.337,3.271,1.097,4.101c1.435,0.827,3.27,0.336,4.099-1.101
			c0.785-1.359,0.373-3.069-0.893-3.95l3.026-5.24c0.684,0.354,1.448,0.569,2.27,0.569c0.822,0,1.586-0.217,2.27-0.567l3.025,5.24
			c-1.27,0.883-1.68,2.592-0.896,3.952c0.83,1.437,2.664,1.927,4.1,1.099s1.926-2.662,1.1-4.099
			c-0.787-1.358-2.475-1.856-3.869-1.201l-3.021-5.229c1.312-0.848,2.185-2.288,2.267-3.941h6.051C28.154,18.788,29.43,20,31,20
			c1.658,0,3-1.343,3-3C33.998,15.343,32.656,14,31,14z"/>
	</g>
</g>
<g>
</g>
<g>
</g>
<g>
</g>
<g>
</g>
<g>
</g>
<g>
</g>
<g>
</g>
<g>
</g>
<g>
</g>
<g>
</g>
<g>
</g>
<g>
</g>
<g>
</g>
<g>
</g>
<g>
</g>
</svg>
