<?xml version='1.0' encoding='iso-8859-1'?>
<svg version="1.1" xmlns="http://www.w3.org/2000/svg" viewBox="0 0 241.101 241.101" xmlns:xlink="http://www.w3.org/1999/xlink" enable-background="new 0 0 241.101 241.101">
  <g>
    <rect width="181" x="60.101" y="169.316" height="33"/>
    <path d="m15.834,21.316l-15.834,49h11.455l2.762-10h15.465l2.797,10h11.455l-15.869-49h-12.231zm.91,31l5.088-18h0.201l5.121,18h-10.41z"/>
    <path d="m35.51,120.109c2.291-0.921 3.986-2.291 5.088-4.111 1.1-1.818 1.65-3.896 1.65-6.232 0-4.47-1.707-7.819-5.121-10.077-3.414-2.257-8.164-3.372-14.252-3.372h-16.774v49h19.2c5.998,0 10.602-1.21 13.814-3.658 3.211-2.448 4.818-6.058 4.818-10.843 0-2.561-0.686-4.819-2.057-6.784-1.368-1.968-3.491-3.272-6.366-3.923zm-18.409-14.793h5.774c2.695,0 4.695,0.344 5.998,1.298 1.303,0.955 1.953,2.409 1.953,4.499 0,1.842-0.639,2.994-1.92,3.948-1.279,0.955-3.213,1.255-5.795,1.255h-6.011v-11zm13.66,29.702c-1.213,0.955-3.033,1.298-5.459,1.298h-8.2v-12h8.841c2.336,0 4.025,0.529 5.07,1.619 1.045,1.09 1.566,2.627 1.566,4.761 0,1.976-0.605,3.367-1.818,4.322z"/>
    <path d="m24.156,169.316c-5.84,0-10.757,1.869-14.408,5.609-3.65,3.739-5.648,8.574-5.648,14.504v10.242c0,5.952 2.07,10.793 5.867,14.521 3.795,3.729 8.814,5.592 14.878,5.592 6.041,0 10.693-1.516 13.873-4.548 3.178-3.032 4.901-7.195 5.125-12.945l-.045,.024h-11.083c-0.158,3-0.809,5.287-1.955,6.747-1.145,1.46-3.088,2.075-5.828,2.075-2.83,0-5.421-1.101-7.038-3.189-1.617-2.089-2.792-4.886-2.792-8.277v-10.31c0-3.369 1.109-6.093 2.591-8.17 1.482-2.077 3.697-3.116 6.281-3.116 3.055,0 5.309,0.678 6.579,2.228 1.268,1.55 2.072,4.013 2.23,7.013h11.084l.068-.106c-0.428-5.749-2.281-10.138-5.559-13.259-3.282-3.123-8.021-4.635-14.22-4.635z"/>
    <rect width="181" x="60.101" y="104.316" height="33"/>
    <rect width="181" x="60.101" y="37.316" height="33"/>
  </g>
</svg>
