<?xml version="1.0" encoding="iso-8859-1"?>
<!-- Generator: Adobe Illustrator 19.1.0, SVG Export Plug-In . SVG Version: 6.00 Build 0)  -->
<svg version="1.1" id="Capa_1" xmlns="http://www.w3.org/2000/svg" xmlns:xlink="http://www.w3.org/1999/xlink" x="0px" y="0px"
	 viewBox="0 0 419.49 419.49" style="enable-background:new 0 0 419.49 419.49;" xml:space="preserve">
<g>
	<g id="Cloud">
		<g>
			<path d="M349.288,190.562c-9.093-67.527-53.014-116.868-122.536-116.868c-58.207,0-90.428,34.557-110.292,88.206
				c-7.233-1.746-14.716-2.63-22.244-2.63C42.221,159.27,0,203.895,0,255.095c0,48.978,40.702,87.753,90.701,90.701h249.427
				c43.355,0,79.363-36.666,79.363-79.363C419.49,226.91,388.879,194.734,349.288,190.562z M340.127,323.121H90.701
				c-36.099-2.131-68.025-32.425-68.025-68.025c0-37.21,33.763-70.452,71.54-70.452c8.843,0,17.528,1.678,25.804,4.989l13.673,5.487
				l3.673-14.059c12.811-49.001,38.049-84.692,89.385-84.692c60.293,0,95.19,47.958,97.889,107.344l0.59,12.879l15.646-1.111
				c29.16,0,55.962,22.244,55.962,50.951C396.815,295.14,369.287,323.121,340.127,323.121z"/>
		</g>
	</g>
</g>
<g>
</g>
<g>
</g>
<g>
</g>
<g>
</g>
<g>
</g>
<g>
</g>
<g>
</g>
<g>
</g>
<g>
</g>
<g>
</g>
<g>
</g>
<g>
</g>
<g>
</g>
<g>
</g>
<g>
</g>
</svg>
