<?xml version="1.0" encoding="iso-8859-1"?>
<!-- Generator: Adobe Illustrator 19.1.0, SVG Export Plug-In . SVG Version: 6.00 Build 0)  -->
<svg version="1.1" id="Capa_1" xmlns="http://www.w3.org/2000/svg" xmlns:xlink="http://www.w3.org/1999/xlink" x="0px" y="0px"
	 viewBox="0 0 340.127 340.127" style="enable-background:new 0 0 340.127 340.127;" xml:space="preserve">
<g>
	<g id="Briefcase_2_">
		<g>
			<path d="M249.427,79.363v-45.35c0-12.517-10.158-22.675-22.675-22.675H113.376c-12.517,0-22.675,10.158-22.675,22.675v45.033
				l22.675,0.091V56.688c0-12.517,10.158-22.675,22.675-22.675h68.025c12.517,0,22.675,10.158,22.675,22.675v22.72l-113.376-0.045H0
				V328.79h340.127V79.363H249.427z M317.452,306.114H22.675V158.726h102.038c0,12.517,10.158,22.675,22.675,22.675h45.35
				c12.517,0,22.675-10.158,22.675-22.675h102.038V306.114z M317.452,136.051H22.675v-34.013h294.777V136.051z"/>
		</g>
	</g>
</g>
<g>
</g>
<g>
</g>
<g>
</g>
<g>
</g>
<g>
</g>
<g>
</g>
<g>
</g>
<g>
</g>
<g>
</g>
<g>
</g>
<g>
</g>
<g>
</g>
<g>
</g>
<g>
</g>
<g>
</g>
</svg>
