<?xml version="1.0" encoding="iso-8859-1"?>
<!-- Generator: Adobe Illustrator 19.1.0, SVG Export Plug-In . SVG Version: 6.00 Build 0)  -->
<svg version="1.1" id="Capa_1" xmlns="http://www.w3.org/2000/svg" xmlns:xlink="http://www.w3.org/1999/xlink" x="0px" y="0px"
	 viewBox="0 0 441.476 441.476" style="enable-background:new 0 0 441.476 441.476;" xml:space="preserve">
<g>
	<g>
		<path style="fill:#231F20;" d="M85.516,287.547c-36.344,0-66.275-29.931-66.275-66.275s29.931-66.275,66.275-66.275
			s66.275,29.931,66.275,66.275S121.86,287.547,85.516,287.547z M85.516,185.997c-19.241,0-34.206,14.965-34.206,34.206
			s14.965,34.206,34.206,34.206s34.206-14.965,34.206-34.206C119.722,202.032,103.688,185.997,85.516,185.997z"/>
		<path style="fill:#231F20;" d="M355.96,132.55c-36.344,0-66.275-29.931-66.275-66.275S319.616,0,355.96,0
			s66.275,29.931,66.275,66.275S392.305,132.55,355.96,132.55z M355.96,32.068c-19.241,0-34.206,14.965-34.206,34.206
			s14.965,34.206,34.206,34.206c19.241,0,34.206-14.965,34.206-34.206S374.132,32.068,355.96,32.068z"/>
		<path style="fill:#231F20;" d="M134.688,203.1c-5.345,0-10.689-3.207-13.896-8.552c-4.276-7.483-1.069-17.103,6.414-21.379
			l169.963-96.205c7.483-4.276,17.103-1.069,21.379,6.414c4.276,7.483,1.069,17.103-6.414,21.379L142.17,200.963
			C140.032,203.1,137.895,203.1,134.688,203.1z"/>
		<path style="fill:#231F20;" d="M355.96,441.476c-36.344,0-66.275-29.931-66.275-66.275c0-36.344,29.931-66.275,66.275-66.275
			s66.275,29.931,66.275,66.275S392.305,441.476,355.96,441.476z M355.96,340.995c-19.241,0-34.206,14.965-34.206,34.206
			c0,19.241,14.965,34.206,34.206,34.206c19.241,0,34.206-14.965,34.206-34.206C390.167,355.96,374.132,340.995,355.96,340.995z"/>
		<path style="fill:#231F20;" d="M304.651,365.581c-2.138,0-5.345-1.069-7.483-2.138l-169.963-96.205
			c-7.483-4.276-10.689-13.896-6.414-21.379c4.276-7.483,13.896-10.689,21.379-6.414l169.963,96.205
			c7.483,4.276,10.689,13.896,6.414,21.379C316.409,362.374,311.064,365.581,304.651,365.581z"/>
	</g>
</g>
<g>
</g>
<g>
</g>
<g>
</g>
<g>
</g>
<g>
</g>
<g>
</g>
<g>
</g>
<g>
</g>
<g>
</g>
<g>
</g>
<g>
</g>
<g>
</g>
<g>
</g>
<g>
</g>
<g>
</g>
</svg>
