<?xml version="1.0" encoding="iso-8859-1"?>
<!-- Generator: Adobe Illustrator 19.1.0, SVG Export Plug-In . SVG Version: 6.00 Build 0)  -->
<svg version="1.1" id="Capa_1" xmlns="http://www.w3.org/2000/svg" xmlns:xlink="http://www.w3.org/1999/xlink" x="0px" y="0px"
	 viewBox="0 0 408.153 408.153" style="enable-background:new 0 0 408.153 408.153;" xml:space="preserve">
<g>
	<g id="Bulbs_2_">
		<g>
			<path d="M204.054,68.025c-56.257,0-102.015,44.897-102.015,100.088c0,1.429,0.159,2.812,0.476,5.193
				c0,0.862,0.091,1.701,0.227,2.54c1.746,21.995,10.431,42.13,25.147,58.434l23.469,53.695c1.791,4.127,5.873,6.803,10.385,6.803
				h84.601c4.512,0,8.594-2.676,10.385-6.803l23.469-53.717c14.467-16.031,23.106-35.781,25.056-57.345
				c0.703-1.814,0.862-3.741,0.567-5.623c0.136-1.043,0.227-2.109,0.227-3.197C306.046,112.922,260.288,68.025,204.054,68.025z
				 M282.918,172.082c0,0.091-0.023,0.204-0.023,0.295c-0.045,0.317-0.091,0.658-0.113,0.975
				c-1.247,17.732-8.322,33.945-20.476,46.87c-0.884,0.952-1.61,2.041-2.131,3.22l-21.247,48.661h-69.771l-21.247-48.661
				c-0.522-1.179-1.247-2.268-2.131-3.22c-12.154-12.925-19.229-29.138-20.476-46.87c-0.023-0.204-0.068-0.453-0.113-0.726
				c0-0.181,0-0.363-0.023-0.544c-0.023-0.34-0.408-3.651-0.454-3.968c0-42.697,35.577-77.413,79.34-77.413
				s79.34,34.716,79.204,78.365C283.099,170.064,282.963,171.061,282.918,172.082z M238.089,317.452h-68.025
				c-6.258,0-11.338,5.079-11.338,11.338c0,6.258,5.079,11.338,11.338,11.338h68.025c6.258,0,11.338-5.079,11.338-11.338
				C249.427,322.531,244.347,317.452,238.089,317.452z M226.751,362.802h-45.35c-6.258,0-11.338,5.079-11.338,11.338
				c0,6.258,5.079,11.338,11.338,11.338c0,12.517,10.158,22.675,22.675,22.675s22.675-10.158,22.675-22.675
				c6.258,0,11.338-5.079,11.338-11.338C238.089,367.882,233.01,362.802,226.751,362.802z M215.414,231.286l-11.338-72.56
				l-11.338,72.56l-11.338-18.14l-11.338,18.14c0,0,17.165,18.14,34.013,18.14c17.165,0,34.013-18.14,34.013-18.14l-11.338-18.14
				L215.414,231.286z M204.076,45.35c6.258,0,11.338-5.079,11.338-11.338V11.338C215.414,5.079,210.335,0,204.076,0
				c-6.258,0-11.338,5.079-11.338,11.338v22.675C192.739,40.271,197.818,45.35,204.076,45.35z M362.802,158.726h-22.675
				c-6.258,0-11.338,5.079-11.338,11.338c0,6.258,5.079,11.338,11.338,11.338h22.675c6.258,0,11.338-5.079,11.338-11.338
				C374.14,163.805,369.061,158.726,362.802,158.726z M68.025,158.726H45.35c-6.258,0-11.338,5.079-11.338,11.338
				c0,6.258,5.079,11.338,11.338,11.338h22.675c6.258,0,11.338-5.079,11.338-11.338C79.363,163.805,74.284,158.726,68.025,158.726z
				 M115.893,81.88c4.422-4.422,4.422-11.61,0-16.031L99.861,49.817c-4.422-4.422-11.61-4.422-16.031,0
				c-4.422,4.422-4.422,11.61,0,16.031L99.861,81.88C104.283,86.302,111.471,86.302,115.893,81.88z M325.728,48.434
				c-4.467-4.467-11.723-4.467-16.19,0l-16.213,16.19c-4.467,4.467-4.467,11.723,0,16.19c4.467,4.467,11.723,4.467,16.19,0
				l16.19-16.19C330.195,60.157,330.195,52.901,325.728,48.434z"/>
		</g>
	</g>
</g>
<g>
</g>
<g>
</g>
<g>
</g>
<g>
</g>
<g>
</g>
<g>
</g>
<g>
</g>
<g>
</g>
<g>
</g>
<g>
</g>
<g>
</g>
<g>
</g>
<g>
</g>
<g>
</g>
<g>
</g>
</svg>
