<?xml version="1.0" encoding="iso-8859-1"?>
<!-- Generator: Adobe Illustrator 18.0.0, SVG Export Plug-In . SVG Version: 6.00 Build 0)  -->
<!DOCTYPE svg PUBLIC "-//W3C//DTD SVG 1.1//EN" "http://www.w3.org/Graphics/SVG/1.1/DTD/svg11.dtd">
<svg version="1.1" id="Capa_1" xmlns="http://www.w3.org/2000/svg" xmlns:xlink="http://www.w3.org/1999/xlink" x="0px" y="0px"
	 viewBox="0 0 320 320" style="enable-background:new 0 0 320 320;" xml:space="preserve">
<g>
	<path d="M98.731,128.954c26.967,10.155,39.793-1.801,39.793-1.801c2.672-2.49,2.287-6.051-0.857-7.914L84.544,87.778
		c-3.145-1.862-6.318-0.458-7.053,3.122C77.491,90.9,71.764,118.798,98.731,128.954z"/>
	<path d="M221.269,128.954c26.967-10.156,21.239-38.054,21.239-38.054c-0.734-3.58-3.908-4.984-7.053-3.122l-53.123,31.461
		c-3.145,1.863-3.529,5.424-0.856,7.914C181.477,127.153,194.302,139.109,221.269,128.954z"/>
	<path d="M310,15.049H10c-5.522,0-10,4.478-10,10v198.054c0,5.522,4.478,10,10,10h115.654v51.849H96.268c-5.522,0-10,4.478-10,10
		s4.478,10,10,10h39.387h52.923h41.066c5.522,0,10-4.478,10-10s-4.478-10-10-10h-31.066v-51.849H310c5.522,0,10-4.478,10-10V25.049
		C320,19.526,315.522,15.049,310,15.049z M300,35.049v139.084H20V35.049H300z M178.577,284.951h-32.923v-51.849h32.923V284.951z
		 M188.577,213.103h-52.923H20v-18.97h280v18.97H188.577z"/>
</g>
<g>
</g>
<g>
</g>
<g>
</g>
<g>
</g>
<g>
</g>
<g>
</g>
<g>
</g>
<g>
</g>
<g>
</g>
<g>
</g>
<g>
</g>
<g>
</g>
<g>
</g>
<g>
</g>
<g>
</g>
</svg>
