<?xml version="1.0" encoding="iso-8859-1"?>
<!-- Generator: Adobe Illustrator 19.1.0, SVG Export Plug-In . SVG Version: 6.00 Build 0)  -->
<svg version="1.1" id="Capa_1" xmlns="http://www.w3.org/2000/svg" xmlns:xlink="http://www.w3.org/1999/xlink" x="0px" y="0px"
	 viewBox="0 0 362.802 362.802" style="enable-background:new 0 0 362.802 362.802;" xml:space="preserve">
<g>
	<g id="Camera_1_">
		<g>
			<path d="M300.446,158.726c9.387,0,17.006-7.619,17.006-17.006s-7.619-17.006-17.006-17.006c-9.388,0-17.006,7.619-17.006,17.006
				S291.058,158.726,300.446,158.726z M181.401,124.713c-43.831,0-79.363,35.532-79.363,79.363s35.532,79.363,79.363,79.363
				s79.363-35.532,79.363-79.363S225.232,124.713,181.401,124.713z M181.401,260.764c-31.314,0-56.688-25.373-56.688-56.688
				s25.373-56.688,56.688-56.688s56.688,25.373,56.688,56.688S212.715,260.764,181.401,260.764z M260.764,79.363V68.025
				c0-12.517-10.158-34.013-22.675-34.013H124.713c-12.517,0-22.675,21.496-22.675,34.013v11.338H0V328.79h362.802V79.363H260.764z
				 M340.127,306.114H22.675V102.038h102.038V68.025c0-12.517,10.158-11.338,22.675-11.338h68.025
				c12.517,0,22.675-1.179,22.675,11.338v34.013h102.038V306.114z M181.401,181.401c-12.517,0-22.675,10.158-22.675,22.675
				s10.158,22.675,22.675,22.675s22.675-10.158,22.675-22.675S193.918,181.401,181.401,181.401z"/>
		</g>
	</g>
</g>
<g>
</g>
<g>
</g>
<g>
</g>
<g>
</g>
<g>
</g>
<g>
</g>
<g>
</g>
<g>
</g>
<g>
</g>
<g>
</g>
<g>
</g>
<g>
</g>
<g>
</g>
<g>
</g>
<g>
</g>
</svg>
