<?xml version="1.0" encoding="iso-8859-1"?>
<!-- Generator: Adobe Illustrator 18.0.0, SVG Export Plug-In . SVG Version: 6.00 Build 0)  -->
<!DOCTYPE svg PUBLIC "-//W3C//DTD SVG 1.1//EN" "http://www.w3.org/Graphics/SVG/1.1/DTD/svg11.dtd">
<svg version="1.1" id="Capa_1" xmlns="http://www.w3.org/2000/svg" xmlns:xlink="http://www.w3.org/1999/xlink" x="0px" y="0px"
	 viewBox="0 0 461.833 461.833" style="enable-background:new 0 0 461.833 461.833;" xml:space="preserve">
<g>
	<path style="fill:#020202;" d="M299.754,248.061v135.651H46.922V61.5c0-6.608,5.376-11.993,11.992-11.993h228.85
		c6.614,0,11.991,5.385,11.991,11.993v12.654l37.765-37.77c0.573-0.573,1.236-0.996,1.839-1.509
		c-9.714-18.734-29.066-31.707-51.595-31.707H58.914C26.746,3.168,0.583,29.339,0.583,61.5v342.004
		c0,32.158,26.163,58.329,58.331,58.329h228.85c32.167,0,58.33-26.171,58.33-58.329V202.551l-42.711,42.703
		C302.297,246.34,300.984,247.155,299.754,248.061z M151.38,421.83c0-12.112,9.835-21.947,21.963-21.947
		c12.111,0,21.947,9.835,21.947,21.947c0,12.143-9.836,21.963-21.947,21.963C161.214,443.793,151.38,433.973,151.38,421.83z"/>
	<path style="fill:#020202;" d="M367.551,50.035c-4.525-4.525-11.857-4.525-16.38,0L229.666,171.538
		c-1.387,1.388-2.405,3.107-2.949,5.008l-17.535,61.228c-1.154,4.042-0.031,8.401,2.949,11.373c2.203,2.202,5.159,3.394,8.191,3.394
		c1.063,0,2.141-0.151,3.19-0.453l61.219-17.542c1.892-0.544,3.613-1.554,5-2.942L411.242,110.1
		c2.172-2.172,3.393-5.113,3.393-8.189c0-3.079-1.222-6.02-3.393-8.191L367.551,50.035z M237.208,224.062l8.803-30.727
		l21.917,21.918L237.208,224.062z M281.534,207.03l-27.287-27.303L359.36,74.607l27.31,27.303L281.534,207.03z"/>
	<g>
		<path style="fill:#020202;" d="M448.788,12.475C440.8,4.479,429.984,0,418.709,0c-11.276,0-22.083,4.479-30.055,12.459
			l-10.751,10.764c-4.003,4.008-4.003,10.501,0,14.508l45.608,45.66c4.008,4.013,10.51,4.015,14.521,0.005l10.764-10.764
			C465.403,56.023,465.403,29.082,448.788,12.475z M432.42,56.234l-1.682,1.689l-27.392-27.393l1.696-1.689
			c3.651-3.666,8.508-5.672,13.667-5.672c5.167,0,10.031,2.021,13.696,5.688c3.659,3.665,5.672,8.521,5.672,13.695
			C438.077,47.727,436.071,52.584,432.42,56.234z"/>
	</g>
</g>
<g>
</g>
<g>
</g>
<g>
</g>
<g>
</g>
<g>
</g>
<g>
</g>
<g>
</g>
<g>
</g>
<g>
</g>
<g>
</g>
<g>
</g>
<g>
</g>
<g>
</g>
<g>
</g>
<g>
</g>
</svg>
