<?xml version="1.0" encoding="iso-8859-1"?>
<!-- Generator: Adobe Illustrator 19.1.0, SVG Export Plug-In . SVG Version: 6.00 Build 0)  -->
<svg version="1.1" id="Capa_1" xmlns="http://www.w3.org/2000/svg" xmlns:xlink="http://www.w3.org/1999/xlink" x="0px" y="0px"
	 viewBox="0 0 31.059 31.059" style="enable-background:new 0 0 31.059 31.059;" xml:space="preserve">
<g>
	<g>
		<g>
			<path style="fill:#010002;" d="M15.529,23.724c-3.197,0-5.798-2.602-5.798-5.798s2.601-5.798,5.798-5.798
				c3.196,0,5.797,2.602,5.797,5.798S18.726,23.724,15.529,23.724z M15.529,13.903c-2.219,0-4.022,1.805-4.022,4.023
				s1.804,4.022,4.022,4.022c2.218,0,4.023-1.805,4.023-4.022S17.747,13.903,15.529,13.903z"/>
		</g>
		<g>
			<path style="fill:#010002;" d="M30.171,28.515H0.888C0.398,28.515,0,28.118,0,27.628V8.224c0-0.49,0.398-0.887,0.888-0.887h6.925
				l1.56-4.213c0.129-0.348,0.461-0.58,0.833-0.58h10.648c0.371,0,0.703,0.232,0.832,0.58l1.56,4.213h6.925
				c0.49,0,0.888,0.396,0.888,0.887v19.404C31.059,28.118,30.661,28.515,30.171,28.515z M1.775,26.741h27.509V9.111h-6.655
				c-0.371,0-0.703-0.231-0.832-0.579l-1.561-4.213h-9.413l-1.56,4.213C9.133,8.88,8.801,9.111,8.43,9.111H1.775V26.741z"/>
		</g>
	</g>
	<g>
		<path style="fill:#010002;" d="M27.952,14.14h-5.279c-0.294,0-0.533-0.238-0.533-0.532v-2.796c0-0.293,0.239-0.531,0.533-0.531
			h5.279c0.294,0,0.532,0.238,0.532,0.531v2.796C28.484,13.901,28.246,14.14,27.952,14.14z M23.205,13.075h4.215v-1.73h-4.215
			V13.075z"/>
	</g>
</g>
<g>
</g>
<g>
</g>
<g>
</g>
<g>
</g>
<g>
</g>
<g>
</g>
<g>
</g>
<g>
</g>
<g>
</g>
<g>
</g>
<g>
</g>
<g>
</g>
<g>
</g>
<g>
</g>
<g>
</g>
</svg>
