<?xml version="1.0" encoding="iso-8859-1"?>
<!-- Generator: Adobe Illustrator 19.1.0, SVG Export Plug-In . SVG Version: 6.00 Build 0)  -->
<svg version="1.1" id="Capa_1" xmlns="http://www.w3.org/2000/svg" xmlns:xlink="http://www.w3.org/1999/xlink" x="0px" y="0px"
	 viewBox="0 0 351.465 351.465" style="enable-background:new 0 0 351.465 351.465;" xml:space="preserve">
<g>
	<g id="Camera_4_">
		<g>
			<path d="M249.427,68.025H22.675C10.158,68.025,0,78.184,0,90.701v170.064c0,12.517,10.158,22.675,22.675,22.675h226.751
				c12.517,0,22.675-10.158,22.675-22.675V90.701C272.102,78.184,261.943,68.025,249.427,68.025z M249.427,238.089
				c0,12.517-10.158,22.675-22.675,22.675H45.35c-12.517,0-22.675-10.158-22.675-22.675V113.376
				c0-12.517,10.158-22.675,22.675-22.675h181.401c12.517,0,22.675,10.158,22.675,22.675V238.089z M343.166,102.537
				c-4.875-1.474-10,0.408-12.789,4.558l-35.6,40.294v68.025l35.6,40.294c2.154,3.22,5.759,5.057,9.501,5.057
				c1.088,0,2.199-0.159,3.288-0.476c4.807-1.451,8.299-5.873,8.299-10.861V113.376
				C351.465,108.387,347.973,103.988,343.166,102.537z M113.376,226.751l56.688-45.35l-56.688-45.35V226.751z"/>
		</g>
	</g>
</g>
<g>
</g>
<g>
</g>
<g>
</g>
<g>
</g>
<g>
</g>
<g>
</g>
<g>
</g>
<g>
</g>
<g>
</g>
<g>
</g>
<g>
</g>
<g>
</g>
<g>
</g>
<g>
</g>
<g>
</g>
</svg>
