<?xml version='1.0' encoding='iso-8859-1'?>
<!DOCTYPE svg PUBLIC '-//W3C//DTD SVG 1.1//EN' 'http://www.w3.org/Graphics/SVG/1.1/DTD/svg11.dtd'>
<svg version="1.1" xmlns="http://www.w3.org/2000/svg" viewBox="0 0 512 512" xmlns:xlink="http://www.w3.org/1999/xlink" enable-background="new 0 0 512 512">
  <g>
    <path d="m464,400h-18.272c-1.511-5.809-3.814-11.254-6.795-16.303l12.95-12.955c6.25-6.25 6.25-16.383 0-22.625-6.25-6.25-16.391-6.25-22.625,0l-12.949,12.953c-5.049-2.98-10.498-5.287-16.309-6.797v-18.273c0-8.836-7.164-16-16-16s-16,7.164-16,16v18.273c-5.81,1.51-11.257,3.813-16.306,6.797l-12.952-12.953c-6.25-6.25-16.375-6.25-22.625,0s-6.25,16.375 0,22.625l12.952,12.953c-2.982,5.047-5.286,10.496-6.797,16.305h-18.272c-8.836,0-16,7.164-16,16s7.164,16 16,16h18.272c1.511,5.809 3.814,11.258 6.797,16.305l-12.952,12.953c-6.25,6.25-6.25,16.375 0,22.625 3.125,3.125 7.219,4.688 11.313,4.688 4.094,0 8.188-1.563 11.313-4.688l12.952-12.953c5.049,2.984 10.496,5.287 16.306,6.797v18.273c0,8.836 7.164,16 16,16s16-7.164 16-16v-18.273c5.81-1.51 11.26-3.816 16.309-6.797l12.949,12.953c3.125,3.125 7.219,4.688 11.313,4.688 4.094,0 8.188-1.563 11.313-4.688 6.25-6.242 6.25-16.375 0-22.625l-12.95-12.955c2.98-5.049 5.284-10.494 6.795-16.303h18.27c8.836,0 16-7.164 16-16s-7.164-16-16-16zm-80,48c-17.648,0-32-14.352-32-32s14.352-32 32-32 32,14.352 32,32-14.352,32-32,32z"/>
    <path d="m208,112c-35.289,0-64,28.711-64,64s28.711,64 64,64 64-28.711 64-64-28.711-64-64-64zm0,96c-17.648,0-32-14.352-32-32s14.352-32 32-32 32,14.352 32,32-14.352,32-32,32z"/>
    <path d="m309.828,323.078l45.25-45.258c6.25-6.25 6.25-16.375 0-22.625l-17.219-17.219c2.172-4.555 4.102-9.219 5.781-13.977h24.36c8.836,0 16-7.164 16-16v-64c0-8.836-7.164-16-16-16h-24.359c-1.68-4.758-3.609-9.422-5.781-13.977l17.219-17.219c6.25-6.25 6.25-16.375 0-22.625l-45.25-45.258c-6.25-6.25-16.375-6.25-22.625,0l-17.227,17.219c-4.547-2.164-9.211-4.094-13.977-5.781v-24.358c0-8.836-7.164-16-16-16h-64c-8.836,0-16,7.164-16,16v24.359c-4.766,1.688-9.422,3.617-13.969,5.781l-17.227-17.219c-6.25-6.25-16.375-6.25-22.625,0l-45.257,45.259c-3,3-4.688,7.07-4.688,11.313 0,4.242 1.688,8.313 4.688,11.313l17.226,17.219c-2.172,4.547-4.102,9.211-5.781,13.977h-24.367c-8.836,0-16,7.164-16,16v64c0,8.836 7.164,16 16,16h24.367c1.68,4.766 3.609,9.43 5.781,13.977l-17.226,17.219c-3,3-4.688,7.07-4.688,11.313 0,4.242 1.688,8.313 4.688,11.313l45.258,45.258c6.25,6.25 16.375,6.25 22.625,0l17.227-17.219c4.547,2.164 9.203,4.094 13.969,5.781v24.356c0,8.836 7.164,16 16,16h64c8.836,0 16-7.164 16-16v-24.359c4.766-1.688 9.43-3.617 13.977-5.781l17.227,17.219c6.248,6.249 16.373,6.249 22.623-0.001zm-25.594-48.211c-5.164-5.156-13.148-6.164-19.445-2.469-8.953,5.289-18.641,9.297-28.789,11.914-7.063,1.82-12,8.195-12,15.492v20.196h-32v-20.195c0-7.297-4.938-13.672-12-15.492-10.156-2.625-19.836-6.625-28.789-11.914-6.297-3.719-14.297-2.703-19.445,2.469l-14.273,14.273-22.625-22.633 14.273-14.273c5.164-5.164 6.18-13.164 2.461-19.453-5.281-8.938-9.289-18.625-11.914-28.781-1.82-7.063-8.195-12-15.492-12h-20.196v-32h20.195c7.297,0 13.672-4.938 15.492-12 2.625-10.156 6.633-19.844 11.914-28.781 3.719-6.289 2.703-14.289-2.461-19.453l-14.273-14.275 22.625-22.633 14.273,14.273c5.172,5.164 13.156,6.188 19.445,2.469 8.953-5.289 18.633-9.289 28.789-11.914 7.063-1.82 12-8.195 12-15.492v-20.195h32v20.195c0,7.297 4.938,13.672 12,15.492 10.148,2.617 19.836,6.625 28.789,11.914 6.289,3.695 14.273,2.688 19.445-2.469l14.281-14.273 22.625,22.633-14.273,14.273c-5.164,5.156-6.18,13.164-2.469,19.445 5.297,8.969 9.305,18.649 11.914,28.781 1.82,7.07 8.195,12.008 15.492,12.008h20.197v32h-20.195c-7.297,0-13.672,4.938-15.492,12.008-2.609,10.133-6.617,19.813-11.914,28.781-3.711,6.281-2.695,14.289 2.469,19.445l14.273,14.273-22.625,22.633-14.282-14.272z"/>
  </g>
</svg>
