<?xml version="1.0" encoding="iso-8859-1"?>
<!-- Generator: Adobe Illustrator 19.1.0, SVG Export Plug-In . SVG Version: 6.00 Build 0)  -->
<svg version="1.1" id="Capa_1" xmlns="http://www.w3.org/2000/svg" xmlns:xlink="http://www.w3.org/1999/xlink" x="0px" y="0px"
	 viewBox="0 0 419.49 419.49" style="enable-background:new 0 0 419.49 419.49;" xml:space="preserve">
<g>
	<g id="Cloud__x2B__Rain">
		<g>
			<path d="M162.762,292.917l-54.126,53.944l16.031,15.986l54.126-53.944L162.762,292.917z M222.874,292.917l-54.126,53.944
				l16.031,15.986l54.126-53.944L222.874,292.917z M231.286,346.862l16.031,15.986l54.126-53.944l-16.031-15.986L231.286,346.862z
				 M349.288,173.147c-9.093-67.323-53.014-116.505-122.536-116.505c-58.207,0-90.428,34.444-110.292,87.912
				c-7.233-1.723-14.693-2.608-22.244-2.608C42.221,141.946,0,186.435,0,237.477c0,48.82,40.702,87.458,90.701,90.406h20.612
				v-22.607H90.701c-36.099-2.131-68.025-32.335-68.025-67.799c0-37.097,33.763-70.248,71.54-70.248
				c8.843,0,17.528,1.678,25.804,4.966l13.673,5.465l3.673-14.013c12.811-48.82,38.049-84.397,89.385-84.397
				c60.293,0,95.19,47.822,97.889,107.004l0.59,12.834l15.646-1.111c29.16,0,55.962,22.176,55.962,50.77
				c0,28.616-27.528,56.506-56.688,56.506h-29.704v22.607h29.682c43.355,0,79.363-36.552,79.363-79.114
				C419.49,209.382,388.879,177.32,349.288,173.147z"/>
		</g>
	</g>
</g>
<g>
</g>
<g>
</g>
<g>
</g>
<g>
</g>
<g>
</g>
<g>
</g>
<g>
</g>
<g>
</g>
<g>
</g>
<g>
</g>
<g>
</g>
<g>
</g>
<g>
</g>
<g>
</g>
<g>
</g>
</svg>
