<?xml version='1.0' encoding='iso-8859-1'?>
<!DOCTYPE svg PUBLIC '-//W3C//DTD SVG 1.1//EN' 'http://www.w3.org/Graphics/SVG/1.1/DTD/svg11.dtd'>
<svg version="1.1" xmlns="http://www.w3.org/2000/svg" viewBox="0 0 469.624 469.624" xmlns:xlink="http://www.w3.org/1999/xlink" enable-background="new 0 0 469.624 469.624">
  <path d="m459.624,159.812h-88.004v-96c0-5.523-4.478-10-10-10h-351.62c-5.522,0-10,4.477-10,10v236c0,5.523 4.478,10 10,10h88v96c0,5.523 4.478,10 10,10h351.624c5.522,0 10-4.477 10-10v-236c0-5.523-4.478-10-10-10zm-10,34.846h-331.624v-14.846h331.624v14.846zm-98.004-120.846v14.846h-331.62v-14.846h331.62zm-331.62,216v-181.154h331.62v51.154h-243.62c-5.522,0-10,4.477-10,10v120h-78zm98,106v-181.154h331.624v181.154h-331.624z"/>
</svg>
