<?xml version='1.0' encoding='iso-8859-1'?>
<!DOCTYPE svg PUBLIC '-//W3C//DTD SVG 1.1//EN' 'http://www.w3.org/Graphics/SVG/1.1/DTD/svg11.dtd'>
<svg version="1.1" xmlns="http://www.w3.org/2000/svg" viewBox="0 0 512.003 512.003" xmlns:xlink="http://www.w3.org/1999/xlink" enable-background="new 0 0 512.003 512.003">
  <g>
    <circle cx="80.009" cy="431.993" r="16.001"/>
    <path d="m500.458,100.421c-2-4.985-6.375-8.633-11.641-9.704-5.281-1.102-10.719,0.563-14.516,4.36l-78.957,78.957c-6.235,6.243-16.399,6.25-22.634,0.008l-34.744-34.76c-3.023-3.016-4.688-7.032-4.688-11.305 0-4.274 1.664-8.289 4.688-11.313l78.957-78.965c3.805-3.797 5.438-9.258 4.36-14.524-1.07-5.266-4.727-9.633-9.711-11.641-30.673-12.305-64.089-14.813-96.606-7.266-62.667,14.556-111.308,67.019-121.035,130.561-1.274,8.391-1.927,16.852-1.927,25.15v57.378l-170.748,170.751c-13.712,13.704-21.256,31.931-21.256,51.315 0,19.392 7.549,37.611 21.26,51.315 13.704,13.712 31.932,21.259 51.316,21.259s37.612-7.54 51.315-21.252l170.751-170.744h57.378c8.352,0 16.821-0.655 25.165-1.937 63.527-9.712 115.99-58.35 130.546-121.018 7.564-32.548 5.048-65.967-7.273-96.625zm-23.9,89.388c-11.618,50.034-53.503,88.872-104.216,96.63-6.75,1.031-13.587,1.563-20.321,1.563h-64.003c-4.242,0-8.313,1.68-11.313,4.68l-175.439,175.434c-15.813,15.813-41.565,15.811-57.378-0.002-7.664-7.664-11.883-17.853-11.883-28.69s4.219-21.025 11.883-28.69l175.432-175.438c3-3 4.681-7.071 4.681-11.313v-64.003c0-6.688 0.53-13.532 1.561-20.321 7.766-50.714 46.599-92.599 96.633-104.216 9.868-2.297 19.831-3.43 29.73-3.43 7.828,0 15.627,0.711 23.299,2.133l-59.885,59.884c-9.071,9.071-14.063,21.126-14.063,33.947 0,12.821 4.992,24.876 14.063,33.939l34.744,34.76c18.728,18.704 49.174,18.681 67.886-0.008l59.894-59.894c3.211,17.377 2.805,35.354-1.305,53.035z"/>
  </g>
</svg>
